<svg width="51" height="35" viewBox="0 0 51 35" fill="none" xmlns="http://www.w3.org/2000/svg">
<path d="M18.1859 16.7643C17.7994 9.95382 25.5543 1.35059 25.5543 1.35059C25.5543 1.35059 33.3093 9.95382 32.9228 16.7643C32.5767 22.8645 25.5543 30.0762 25.5543 30.0762C25.5543 30.0762 18.532 22.8645 18.1859 16.7643Z" fill="#C66526" stroke="#F4C498"/>
<path d="M25.2533 14.237C28.0501 8.17027 38.6579 5.23295 38.6579 5.23295C38.6579 5.23295 41.3617 17.0633 37.9015 22.6869C34.8023 27.724 25.4625 29.8871 25.4625 29.8871C25.4625 29.8871 22.7483 19.671 25.2533 14.237Z" fill="#C66526" stroke="#F4C498"/>
<path d="M33.806 18.2122C39.0993 14.8199 48.5366 16.517 48.5366 16.517C48.5366 16.517 44.2747 26.0761 38.7234 28.9075C33.7512 31.4436 25.6662 29.6423 25.6662 29.6423C25.6662 29.6423 29.0647 21.2507 33.806 18.2122Z" fill="#C66526" stroke="#F4C498"/>
<path d="M17.194 18.2122C11.9007 14.8199 2.46337 16.517 2.46337 16.517C2.46337 16.517 6.72532 26.0761 12.2766 28.9075C17.2488 31.4436 25.3338 29.6423 25.3338 29.6423C25.3338 29.6423 21.9353 21.2507 17.194 18.2122Z" fill="#C66526" stroke="#F4C498"/>
<path d="M12.6095 23.2844C8.9369 17.8316 11.1846 5.8827 11.1846 5.8827C11.1846 5.8827 21.8952 8.3096 24.922 14.2369C27.6332 19.546 25.3132 29.8826 25.3132 29.8826C25.3132 29.8826 15.899 28.1685 12.6095 23.2844Z" fill="#C66526" stroke="#F4C498"/>
<path d="M20.2634 19.5187C19.9603 14.1103 26.0426 7.27832 26.0426 7.27832C26.0426 7.27832 32.1249 14.1103 31.8218 19.5187C31.5503 24.3629 26.0426 30.0898 26.0426 30.0898C26.0426 30.0898 20.5349 24.3629 20.2634 19.5187Z" fill="#FFF5F5" fill-opacity="0.32" stroke="#F4C498"/>
<path d="M25.8067 17.5118C28.0003 12.694 36.3201 10.3615 36.3201 10.3615C36.3201 10.3615 38.4407 19.7561 35.7269 24.222C33.2961 28.222 25.9708 29.9397 25.9708 29.9397C25.9708 29.9397 23.8419 21.827 25.8067 17.5118Z" fill="#FFF5F5" fill-opacity="0.32" stroke="#F4C498"/>
<path d="M32.5144 20.6683C36.666 17.9744 44.0678 19.3221 44.0678 19.3221C44.0678 19.3221 40.7251 26.9132 36.3712 29.1616C32.4714 31.1756 26.1302 29.7452 26.1302 29.7452C26.1302 29.7452 28.7957 23.0812 32.5144 20.6683Z" fill="#FFF5F5" fill-opacity="0.32" stroke="#F4C498"/>
<path d="M19.4856 20.6683C15.334 17.9744 7.93219 19.3221 7.93219 19.3221C7.93219 19.3221 11.2749 26.9132 15.6288 29.1616C19.5286 31.1756 25.8698 29.7452 25.8698 29.7452C25.8698 29.7452 23.2043 23.0812 19.4856 20.6683Z" fill="#FFF5F5" fill-opacity="0.32" stroke="#F4C498"/>
<path d="M15.8898 24.6964C13.0093 20.3662 14.7722 10.8774 14.7722 10.8774C14.7722 10.8774 23.1727 12.8046 25.5467 17.5116C27.6731 21.7276 25.8535 29.9361 25.8535 29.9361C25.8535 29.9361 18.4698 28.5749 15.8898 24.6964Z" fill="#FFF5F5" fill-opacity="0.32" stroke="#F4C498"/>
</svg>
